<svg width="1600" height="900" viewBox="0 0 1600 900" fill="none" xmlns="http://www.w3.org/2000/svg">
  <rect width="1600" height="900" rx="40" fill="#0E1220"/>
  <rect width="1600" height="900" rx="40" fill="url(#bg)"/>
  <circle cx="1259" cy="128" r="118" fill="#FF6B87" fill-opacity="0.28"/>
  <circle cx="344" cy="157" r="154" fill="#73FFD8" fill-opacity="0.16"/>
  <path d="M0 646C194 584 319 584 465 636C621 692 744 736 915 684C1060 640 1203 560 1411 584C1481 592 1542 607 1600 624V900H0V646Z" fill="#140E1D"/>
  <path d="M0 712C154 680 308 770 479 789C649 808 788 756 963 733C1170 706 1385 736 1600 803V900H0V712Z" fill="#201832"/>
  <g filter="url(#shadow)">
    <rect x="122" y="226" width="349" height="284" rx="28" fill="#171B28"/>
    <rect x="514" y="189" width="334" height="336" rx="28" fill="#1A1733"/>
    <rect x="918" y="248" width="405" height="235" rx="28" fill="#171522"/>
  </g>
  <rect x="122" y="226" width="349" height="284" rx="28" stroke="#70F8D2" stroke-opacity="0.45" stroke-width="2"/>
  <rect x="514" y="189" width="334" height="336" rx="28" stroke="#C6A1FF" stroke-opacity="0.42" stroke-width="2"/>
  <rect x="918" y="248" width="405" height="235" rx="28" stroke="#FFB06F" stroke-opacity="0.42" stroke-width="2"/>
  <rect x="151" y="270" width="293" height="54" rx="14" fill="#0F1420"/>
  <rect x="949" y="288" width="343" height="50" rx="14" fill="#131723"/>
  <rect x="548" y="243" width="264" height="57" rx="14" fill="#111422"/>
  <text x="191" y="321" fill="#79FFE1" font-family="Arial, sans-serif" font-size="74" font-weight="700" letter-spacing="6">PHO</text>
  <text x="587" y="301" fill="#E6CCFF" font-family="Arial, sans-serif" font-size="64" font-weight="700" letter-spacing="4">VIDEO</text>
  <text x="984" y="337" fill="#FFC48E" font-family="Arial, sans-serif" font-size="61" font-weight="700" letter-spacing="4">MARKET</text>
  <g opacity="0.78">
    <rect x="167" y="370" width="60" height="102" rx="12" fill="#232A39"/>
    <rect x="244" y="370" width="60" height="102" rx="12" fill="#232A39"/>
    <rect x="321" y="370" width="60" height="102" rx="12" fill="#232A39"/>
    <rect x="572" y="337" width="64" height="142" rx="12" fill="#2B2344"/>
    <rect x="655" y="337" width="64" height="142" rx="12" fill="#2B2344"/>
    <rect x="738" y="337" width="64" height="142" rx="12" fill="#2B2344"/>
    <rect x="975" y="373" width="77" height="77" rx="14" fill="#262536"/>
    <rect x="1069" y="373" width="77" height="77" rx="14" fill="#262536"/>
    <rect x="1163" y="373" width="77" height="77" rx="14" fill="#262536"/>
  </g>
  <g>
    <rect x="1111" y="561" width="130" height="79" rx="20" fill="#0F1420" stroke="#FFB36B" stroke-opacity="0.38" stroke-width="2"/>
    <path d="M1149 539L1175 480L1202 539H1149Z" fill="#FF8F74"/>
    <rect x="1164" y="536" width="22" height="63" rx="11" fill="#F5E8DA"/>
    <circle cx="1175" cy="468" r="15" fill="#FFE5C4"/>
  </g>
  <g opacity="0.55">
    <path d="M211 180C268 160 324 153 392 159" stroke="#6DFAD4" stroke-width="4" stroke-linecap="round"/>
    <path d="M1032 174C1093 151 1169 150 1236 170" stroke="#FFAF75" stroke-width="4" stroke-linecap="round"/>
    <path d="M579 144C632 127 702 125 770 147" stroke="#D8B7FF" stroke-width="4" stroke-linecap="round"/>
  </g>
  <defs>
    <linearGradient id="bg" x1="161" y1="55" x2="1453" y2="809" gradientUnits="userSpaceOnUse">
      <stop stop-color="#221540"/>
      <stop offset="0.47" stop-color="#0A2437"/>
      <stop offset="1" stop-color="#3A1023"/>
    </linearGradient>
    <filter id="shadow" x="102" y="169" width="1241" height="376" filterUnits="userSpaceOnUse" color-interpolation-filters="sRGB">
      <feFlood flood-opacity="0" result="BackgroundImageFix"/>
      <feColorMatrix in="SourceAlpha" type="matrix" values="0 0 0 0 0 0 0 0 0 0 0 0 0 0 0 0 0 0 127 0" result="hardAlpha"/>
      <feOffset dy="10"/>
      <feGaussianBlur stdDeviation="10"/>
      <feColorMatrix type="matrix" values="0 0 0 0 0 0 0 0 0 0 0 0 0 0 0 0 0 0 0.22 0"/>
      <feBlend mode="normal" in2="BackgroundImageFix" result="effect1_dropShadow_0_1"/>
      <feBlend mode="normal" in="SourceGraphic" in2="effect1_dropShadow_0_1" result="shape"/>
    </filter>
  </defs>
</svg>
