<svg width="1600" height="900" viewBox="0 0 1600 900" fill="none" xmlns="http://www.w3.org/2000/svg">
  <rect width="1600" height="900" rx="40" fill="#140E0E"/>
  <rect width="1600" height="900" rx="40" fill="url(#bg)"/>
  <g opacity="0.75">
    <circle cx="1170" cy="142" r="118" fill="#FFD08E"/>
    <circle cx="1170" cy="142" r="174" fill="url(#sunGlow)"/>
  </g>
  <path d="M0 424C161 392 297 353 441 349C597 345 725 417 865 420C1021 423 1176 344 1337 367C1438 381 1518 407 1600 430V900H0V424Z" fill="url(#farSea)"/>
  <path d="M0 520C149 480 292 553 452 559C625 566 727 485 907 480C1112 474 1315 599 1600 548V900H0V520Z" fill="url(#midSea)"/>
  <path d="M0 616C163 588 288 658 430 689C596 725 777 682 916 646C1048 612 1185 589 1332 614C1440 632 1522 660 1600 692V900H0V616Z" fill="url(#nearSea)"/>
  <path d="M320 590C383 530 475 497 574 497C676 497 782 552 861 646H264L320 590Z" fill="#241816"/>
  <path d="M380 574C440 522 500 499 568 499C659 499 736 545 803 620" stroke="#6B4B3A" stroke-width="10" stroke-linecap="round"/>
  <path d="M540 412L773 613" stroke="#EAD8B5" stroke-width="10" stroke-linecap="round"/>
  <path d="M546 414L546 645" stroke="#594036" stroke-width="10" stroke-linecap="round"/>
  <path d="M322 648H873L785 706H241L322 648Z" fill="#1C1514"/>
  <rect x="444" y="531" width="76" height="49" rx="8" fill="#725242"/>
  <rect x="533" y="546" width="61" height="37" rx="6" fill="#65483C"/>
  <rect x="394" y="615" width="68" height="18" rx="9" fill="#0D1012" opacity="0.6"/>
  <path d="M828 646H980C1038 646 1085 693 1085 751V755H719V751C719 693 766 646 824 646H828Z" fill="#151110"/>
  <path d="M801 646C845 592 905 553 960 553C1018 553 1061 584 1087 646" fill="#2D221E"/>
  <path d="M880 523L1017 646" stroke="#E7DBC2" stroke-width="9" stroke-linecap="round"/>
  <path d="M880 523L880 754" stroke="#5A4136" stroke-width="9" stroke-linecap="round"/>
  <g opacity="0.85">
    <rect x="1024" y="213" width="250" height="148" rx="20" fill="#15181C" fill-opacity="0.72" stroke="#F4B56B" stroke-opacity="0.42" stroke-width="2"/>
    <path d="M1064 259H1217" stroke="#FCE5C6" stroke-width="5" stroke-linecap="round"/>
    <path d="M1064 299H1190" stroke="#FCE5C6" stroke-width="5" stroke-linecap="round"/>
    <path d="M1064 338H1231" stroke="#FCE5C6" stroke-width="5" stroke-linecap="round"/>
    <circle cx="1230" cy="260" r="10" fill="#FF977B"/>
  </g>
  <g opacity="0.52">
    <path d="M246 300C310 281 379 272 461 279" stroke="#D1A078" stroke-width="3" stroke-linecap="round"/>
    <path d="M143 329C199 311 257 303 330 308" stroke="#D1A078" stroke-width="3" stroke-linecap="round"/>
  </g>
  <g opacity="0.34">
    <path d="M320 736C372 714 412 710 462 724" stroke="#F7EEE0" stroke-width="3" stroke-linecap="round"/>
    <path d="M1021 790C1087 768 1158 773 1220 796" stroke="#F7EEE0" stroke-width="3" stroke-linecap="round"/>
    <path d="M1320 749C1361 737 1416 739 1464 760" stroke="#F7EEE0" stroke-width="3" stroke-linecap="round"/>
  </g>
  <defs>
    <linearGradient id="bg" x1="108" y1="38" x2="1498" y2="848" gradientUnits="userSpaceOnUse">
      <stop stop-color="#784626"/>
      <stop offset="0.42" stop-color="#2D1A18"/>
      <stop offset="1" stop-color="#102B36"/>
    </linearGradient>
    <radialGradient id="sunGlow" cx="0" cy="0" r="1" gradientUnits="userSpaceOnUse" gradientTransform="translate(1170 142) rotate(90) scale(174)">
      <stop stop-color="#FFD08E" stop-opacity="0.34"/>
      <stop offset="1" stop-color="#FFD08E" stop-opacity="0"/>
    </radialGradient>
    <linearGradient id="farSea" x1="800" y1="349" x2="800" y2="900" gradientUnits="userSpaceOnUse">
      <stop stop-color="#23485A"/>
      <stop offset="1" stop-color="#132029"/>
    </linearGradient>
    <linearGradient id="midSea" x1="800" y1="480" x2="800" y2="900" gradientUnits="userSpaceOnUse">
      <stop stop-color="#2D6075"/>
      <stop offset="1" stop-color="#18323C"/>
    </linearGradient>
    <linearGradient id="nearSea" x1="800" y1="616" x2="800" y2="900" gradientUnits="userSpaceOnUse">
      <stop stop-color="#183949"/>
      <stop offset="1" stop-color="#0C171C"/>
    </linearGradient>
  </defs>
</svg>
