<svg width="1600" height="900" viewBox="0 0 1600 900" fill="none" xmlns="http://www.w3.org/2000/svg">
  <rect width="1600" height="900" rx="40" fill="#130F17"/>
  <rect width="1600" height="900" rx="40" fill="url(#bg)"/>
  <circle cx="281" cy="160" r="150" fill="#F8B76B" fill-opacity="0.28"/>
  <circle cx="1263" cy="174" r="141" fill="#7B93FF" fill-opacity="0.18"/>
  <path d="M0 549C138 526 238 500 348 514C479 530 593 629 756 626C902 624 996 535 1151 531C1303 527 1447 589 1600 564V900H0V549Z" fill="#0A2B38"/>
  <path d="M0 631C149 614 284 707 455 731C603 751 746 729 891 673C1047 613 1177 589 1324 627C1417 651 1508 680 1600 709V900H0V631Z" fill="#15485A"/>
  <path d="M149 607L229 510L312 607H149Z" fill="#1D252D"/>
  <rect x="180" y="603" width="97" height="152" fill="#242D36"/>
  <rect x="203" y="647" width="20" height="20" rx="4" fill="#45515D"/>
  <rect x="234" y="647" width="20" height="20" rx="4" fill="#45515D"/>
  <path d="M352 621L441 511L536 621H352Z" fill="#212A32"/>
  <rect x="389" y="618" width="114" height="170" fill="#29323C"/>
  <rect x="418" y="665" width="24" height="24" rx="5" fill="#46525E"/>
  <rect x="454" y="665" width="24" height="24" rx="5" fill="#46525E"/>
  <g filter="url(#panelShadow)">
    <rect x="944" y="344" width="401" height="259" rx="22" fill="#1A1F28" fill-opacity="0.86"/>
  </g>
  <rect x="944" y="344" width="401" height="259" rx="22" stroke="#FFB36B" stroke-opacity="0.4" stroke-width="2"/>
  <rect x="992" y="392" width="305" height="156" rx="18" fill="#0E1420"/>
  <circle cx="1086" cy="469" r="49" fill="#FF8D72" fill-opacity="0.92"/>
  <rect x="1160" y="422" width="74" height="97" rx="14" fill="#6CF6D8" fill-opacity="0.9"/>
  <rect x="1083" y="635" width="100" height="60" rx="15" fill="#D6DBE5"/>
  <rect x="1200" y="635" width="100" height="60" rx="15" fill="#D6DBE5" fill-opacity="0.7"/>
  <path d="M633 366C690 278 817 210 913 194C1065 169 1198 239 1262 333" stroke="#FFF4E4" stroke-opacity="0.62" stroke-width="5" stroke-dasharray="11 13"/>
  <circle cx="632" cy="366" r="9" fill="#FFF4E4"/>
  <circle cx="1262" cy="333" r="9" fill="#FFF4E4"/>
  <rect x="625" y="348" width="54" height="24" rx="12" fill="#FFE7C4"/>
  <rect x="1212" y="318" width="78" height="24" rx="12" fill="#FFE7C4"/>
  <defs>
    <linearGradient id="bg" x1="0" y1="0" x2="1600" y2="900" gradientUnits="userSpaceOnUse">
      <stop stop-color="#5A301D"/>
      <stop offset="0.47" stop-color="#1B1730"/>
      <stop offset="1" stop-color="#0C2930"/>
    </linearGradient>
    <filter id="panelShadow" x="924" y="324" width="441" height="299" filterUnits="userSpaceOnUse" color-interpolation-filters="sRGB">
      <feFlood flood-opacity="0" result="BackgroundImageFix"/>
      <feColorMatrix in="SourceAlpha" type="matrix" values="0 0 0 0 0 0 0 0 0 0 0 0 0 0 0 0 0 0 127 0" result="hardAlpha"/>
      <feOffset dy="10"/>
      <feGaussianBlur stdDeviation="10"/>
      <feColorMatrix type="matrix" values="0 0 0 0 0 0 0 0 0 0 0 0 0 0 0 0 0 0 0.2 0"/>
      <feBlend mode="normal" in2="BackgroundImageFix" result="effect1_dropShadow_0_1"/>
      <feBlend mode="normal" in="SourceGraphic" in2="effect1_dropShadow_0_1" result="shape"/>
    </filter>
  </defs>
</svg>
