<svg width="1200" height="700" viewBox="0 0 1200 700" fill="none" xmlns="http://www.w3.org/2000/svg">
  <rect width="1200" height="700" rx="32" fill="#120F17"/>
  <rect width="1200" height="700" rx="32" fill="url(#paint0_linear)"/>
  <circle cx="222" cy="165" r="128" fill="#F8B76B" fill-opacity="0.33"/>
  <circle cx="948" cy="182" r="134" fill="#7B93FF" fill-opacity="0.22"/>
  <path d="M0 457C162 432 235 506 332 509C417 512 505 445 624 455C744 465 805 557 910 563C1023 569 1084 525 1200 503V700H0V457Z" fill="#0A2D3A"/>
  <path d="M0 505C125 482 240 581 363 574C469 568 565 487 690 492C817 498 934 591 1200 548V700H0V505Z" fill="#12495C"/>
  <path d="M123 488L182 414L244 488H123Z" fill="#1D252D"/>
  <rect x="146" y="486" width="70" height="111" fill="#242D36"/>
  <path d="M269 503L335 428L404 503H269Z" fill="#212A32"/>
  <rect x="295" y="501" width="85" height="131" fill="#29323C"/>
  <rect x="720" y="330" width="286" height="202" rx="18" fill="#1B1F28" fill-opacity="0.72" stroke="#FFB36B" stroke-opacity="0.4" stroke-width="2"/>
  <rect x="755" y="362" width="216" height="126" rx="14" fill="#111721"/>
  <circle cx="823" cy="427" r="36" fill="#FF8D72" fill-opacity="0.85"/>
  <rect x="874" y="392" width="56" height="72" rx="10" fill="#6CF6D8" fill-opacity="0.85"/>
  <rect x="823" y="548" width="74" height="48" rx="12" fill="#D6DBE5"/>
  <rect x="908" y="548" width="74" height="48" rx="12" fill="#D6DBE5" fill-opacity="0.7"/>
  <path d="M487 305C523 240 602 189 662 177C756 158 840 214 882 283" stroke="#FFF4E4" stroke-opacity="0.62" stroke-width="4" stroke-dasharray="10 12"/>
  <circle cx="485" cy="307" r="7" fill="#FFF4E4"/>
  <circle cx="881" cy="282" r="7" fill="#FFF4E4"/>
  <rect x="481" y="295" width="36" height="18" rx="9" fill="#FFE7C4"/>
  <rect x="847" y="272" width="54" height="18" rx="9" fill="#FFE7C4"/>
  <defs>
    <linearGradient id="paint0_linear" x1="0" y1="0" x2="1200" y2="700" gradientUnits="userSpaceOnUse">
      <stop stop-color="#5A301D"/>
      <stop offset="0.47" stop-color="#1B1730"/>
      <stop offset="1" stop-color="#0C2930"/>
    </linearGradient>
  </defs>
</svg>
