<svg width="1600" height="900" viewBox="0 0 1600 900" fill="none" xmlns="http://www.w3.org/2000/svg">
  <rect width="1600" height="900" rx="40" fill="#0A1015"/>
  <rect width="1600" height="900" rx="40" fill="url(#bg)"/>
  <circle cx="1273" cy="135" r="122" fill="#7BFFE0" fill-opacity="0.18"/>
  <g filter="url(#panelShadow)">
    <rect x="121" y="161" width="487" height="350" rx="28" fill="#111A21"/>
    <rect x="703" y="131" width="669" height="391" rx="28" fill="#121722"/>
  </g>
  <rect x="121" y="161" width="487" height="350" rx="28" stroke="#7EECCF" stroke-opacity="0.4" stroke-width="2"/>
  <rect x="703" y="131" width="669" height="391" rx="28" stroke="#FFC97A" stroke-opacity="0.34" stroke-width="2"/>
  <rect x="177" y="220" width="372" height="231" rx="20" fill="#0A1117"/>
  <path d="M220 257H495" stroke="#7EECCF" stroke-width="7" stroke-linecap="round"/>
  <path d="M220 301H458" stroke="#7EECCF" stroke-opacity="0.85" stroke-width="7" stroke-linecap="round"/>
  <path d="M220 344H421" stroke="#7EECCF" stroke-opacity="0.7" stroke-width="7" stroke-linecap="round"/>
  <path d="M220 387H507" stroke="#7EECCF" stroke-opacity="0.56" stroke-width="7" stroke-linecap="round"/>
  <rect x="760" y="210" width="242" height="173" rx="22" fill="#0C121A"/>
  <rect x="1044" y="195" width="255" height="213" rx="22" fill="#0B1118"/>
  <circle cx="881" cy="297" r="85" fill="#1B2431"/>
  <circle cx="881" cy="297" r="54" fill="#2B3A4D"/>
  <circle cx="881" cy="297" r="22" fill="#0F161F"/>
  <rect x="1093" y="250" width="159" height="102" rx="16" fill="#111823"/>
  <rect x="1117" y="271" width="111" height="15" rx="7.5" fill="#273241"/>
  <rect x="1117" y="301" width="90" height="15" rx="7.5" fill="#273241"/>
  <rect x="1117" y="331" width="122" height="15" rx="7.5" fill="#273241"/>
  <path d="M0 652C156 617 287 675 446 719C620 768 789 760 952 711C1113 663 1262 617 1427 633C1497 640 1552 655 1600 672V900H0V652Z" fill="#0F171D"/>
  <path d="M0 730C143 698 305 785 492 807C702 832 899 779 1089 751C1270 724 1439 746 1600 805V900H0V730Z" fill="#18302C"/>
  <rect x="793" y="581" width="225" height="27" rx="13.5" fill="#E9DFD2"/>
  <rect x="842" y="486" width="34" height="122" rx="17" fill="#D7E6E7"/>
  <circle cx="859" cy="458" r="44" fill="#FF9074"/>
  <rect x="1119" y="584" width="114" height="18" rx="9" fill="#E9DFD2"/>
  <rect x="1146" y="505" width="28" height="97" rx="14" fill="#D7E6E7"/>
  <circle cx="1160" cy="481" r="30" fill="#7EECCF"/>
  <g opacity="0.45">
    <path d="M820 165C887 146 953 149 1021 171" stroke="#FFC97A" stroke-width="4" stroke-linecap="round"/>
    <path d="M244 146C298 130 370 130 440 151" stroke="#7EECCF" stroke-width="4" stroke-linecap="round"/>
  </g>
  <defs>
    <linearGradient id="bg" x1="150" y1="49" x2="1450" y2="832" gradientUnits="userSpaceOnUse">
      <stop stop-color="#1A2E30"/>
      <stop offset="0.48" stop-color="#0A1118"/>
      <stop offset="1" stop-color="#473E34"/>
    </linearGradient>
    <filter id="panelShadow" x="101" y="111" width="1291" height="431" filterUnits="userSpaceOnUse" color-interpolation-filters="sRGB">
      <feFlood flood-opacity="0" result="BackgroundImageFix"/>
      <feColorMatrix in="SourceAlpha" type="matrix" values="0 0 0 0 0 0 0 0 0 0 0 0 0 0 0 0 0 0 127 0" result="hardAlpha"/>
      <feOffset dy="10"/>
      <feGaussianBlur stdDeviation="10"/>
      <feColorMatrix type="matrix" values="0 0 0 0 0 0 0 0 0 0 0 0 0 0 0 0 0 0 0.22 0"/>
      <feBlend mode="normal" in2="BackgroundImageFix" result="effect1_dropShadow_0_1"/>
      <feBlend mode="normal" in="SourceGraphic" in2="effect1_dropShadow_0_1" result="shape"/>
    </filter>
  </defs>
</svg>
