<svg width="1600" height="900" viewBox="0 0 1600 900" fill="none" xmlns="http://www.w3.org/2000/svg">
  <rect width="1600" height="900" rx="32" fill="#271E34"/>
  <rect width="1600" height="900" rx="32" fill="url(#bg)"/>
  <rect x="122" y="148" width="1356" height="604" rx="26" fill="#4B365D"/>
  <rect x="218" y="230" width="1164" height="420" rx="18" fill="#5D4472"/>
  <rect x="463" y="434" width="662" height="140" rx="16" fill="#D9E6F1"/>
  <rect x="547" y="481" width="174" height="76" rx="12" fill="#F6F1E5"/>
  <rect x="768" y="451" width="160" height="106" rx="12" fill="#F1E8D7"/>
  <rect x="956" y="470" width="118" height="87" rx="12" fill="#F6F1E5"/>
  <path d="M1025 201H1238" stroke="#FF72D8" stroke-width="18" stroke-linecap="round"/>
  <circle cx="794" cy="415" r="34" fill="#3A2A46"/><rect x="772" y="448" width="44" height="76" rx="22" fill="#2F2239"/>
  <circle cx="518" cy="419" r="28" fill="#3A2A46"/><rect x="500" y="446" width="36" height="70" rx="18" fill="#2F2239"/>
  <circle cx="1104" cy="421" r="28" fill="#3A2A46"/><rect x="1086" y="448" width="36" height="70" rx="18" fill="#2F2239"/>
  <defs><linearGradient id="bg" x1="0" y1="0" x2="1600" y2="900"><stop stop-color="#2F2043"/><stop offset="1" stop-color="#6A4D7A"/></linearGradient></defs>
</svg>
