<svg width="1600" height="900" viewBox="0 0 1600 900" fill="none" xmlns="http://www.w3.org/2000/svg">
  <rect width="1600" height="900" rx="32" fill="#D6D3C7"/>
  <rect width="1600" height="900" rx="32" fill="url(#bg)"/>
  <rect x="158" y="162" width="1286" height="576" rx="24" fill="#EEE7D8"/>
  <rect x="252" y="238" width="474" height="274" rx="16" fill="#D3E0BE"/>
  <path d="M850 252H1310V288H850V252Z" fill="#B8C9D3"/>
  <path d="M850 322H1310V358H850V322Z" fill="#B8C9D3"/>
  <path d="M850 392H1204V428H850V392Z" fill="#B8C9D3"/>
  <rect x="301" y="566" width="218" height="82" rx="14" fill="#B17E58"/>
  <rect x="745" y="566" width="218" height="82" rx="14" fill="#B17E58"/>
  <rect x="1089" y="566" width="218" height="82" rx="14" fill="#B17E58"/>
  <circle cx="412" cy="540" r="22" fill="#5E5040"/><circle cx="857" cy="540" r="22" fill="#5E5040"/><circle cx="1195" cy="540" r="22" fill="#5E5040"/>
  <defs><linearGradient id="bg" x1="0" y1="0" x2="1600" y2="900"><stop stop-color="#F2EDE1"/><stop offset="1" stop-color="#C9C2B0"/></linearGradient></defs>
</svg>
