<svg width="1600" height="900" viewBox="0 0 1600 900" fill="none" xmlns="http://www.w3.org/2000/svg">
  <rect width="1600" height="900" rx="32" fill="#081420"/>
  <rect width="1600" height="900" rx="32" fill="url(#bg)"/>
  <circle cx="1220" cy="162" r="86" fill="#D9E6F8" fill-opacity="0.3"/>
  <path d="M0 516C157 466 310 592 484 570C637 550 738 458 917 460C1116 463 1288 596 1600 543V900H0V516Z" fill="#103A53"/>
  <path d="M0 610C133 558 307 705 500 712C719 720 848 559 1072 558C1262 557 1422 654 1600 711V900H0V610Z" fill="#1B587A"/>
  <path d="M441 599C511 544 612 528 709 548C807 569 897 626 964 700H332L441 599Z" fill="#2B1F19"/>
  <path d="M536 556L772 700" stroke="#C6A27E" stroke-width="8" stroke-linecap="round"/>
  <rect x="582" y="573" width="48" height="96" rx="8" fill="#4D3A30"/>
  <g fill="#1A1715">
    <circle cx="613" cy="635" r="11"/><rect x="605" y="609" width="16" height="36" rx="8"/>
    <circle cx="665" cy="657" r="11"/><rect x="657" y="631" width="16" height="36" rx="8"/>
    <circle cx="718" cy="681" r="11"/><rect x="710" y="655" width="16" height="36" rx="8"/>
    <circle cx="776" cy="694" r="11"/><rect x="768" y="668" width="16" height="36" rx="8"/>
  </g>
  <path d="M0 0H1600V900H0V0Z" fill="url(#rain)" opacity="0.34"/>
  <defs>
    <linearGradient id="bg" x1="800" y1="0" x2="800" y2="900" gradientUnits="userSpaceOnUse">
      <stop stop-color="#0B1827"/><stop offset="1" stop-color="#06111B"/>
    </linearGradient>
    <pattern id="rain" width="32" height="32" patternUnits="userSpaceOnUse" patternTransform="rotate(18)">
      <path d="M16 0V32" stroke="#DCE7F8" stroke-opacity="0.9" stroke-width="2"/>
    </pattern>
  </defs>
</svg>
