<svg width="1600" height="900" viewBox="0 0 1600 900" fill="none" xmlns="http://www.w3.org/2000/svg">
  <rect width="1600" height="900" rx="32" fill="#221632"/>
  <rect width="1600" height="900" rx="32" fill="url(#bg)"/>
  <path d="M0 650C221 608 413 620 584 672C753 724 910 735 1097 694C1264 658 1426 632 1600 646V900H0V650Z" fill="#311D3E"/>
  <rect x="141" y="277" width="265" height="224" rx="18" fill="#3C2D52"/>
  <rect x="446" y="241" width="292" height="260" rx="18" fill="#41305A"/>
  <rect x="778" y="296" width="306" height="205" rx="18" fill="#39274E"/>
  <rect x="1124" y="256" width="300" height="245" rx="18" fill="#44315C"/>
  <path d="M190 320H355" stroke="#7CFFDD" stroke-width="18" stroke-linecap="round"/>
  <path d="M494 290H687" stroke="#FF7AD9" stroke-width="18" stroke-linecap="round"/>
  <path d="M840 343H1031" stroke="#FFC17A" stroke-width="18" stroke-linecap="round"/>
  <path d="M1180 307H1370" stroke="#79A7FF" stroke-width="18" stroke-linecap="round"/>
  <defs><linearGradient id="bg" x1="0" y1="0" x2="1600" y2="900"><stop stop-color="#2D1B43"/><stop offset="1" stop-color="#5B274C"/></linearGradient></defs>
</svg>
