<svg width="1600" height="900" viewBox="0 0 1600 900" fill="none" xmlns="http://www.w3.org/2000/svg">
  <rect width="1600" height="900" rx="32" fill="#D8C9A6"/>
  <rect width="1600" height="900" rx="32" fill="url(#bg)"/>
  <path d="M0 648C216 593 426 630 599 680C760 727 912 725 1091 675C1269 625 1425 593 1600 611V900H0V648Z" fill="#7D7F3E"/>
  <rect x="124" y="268" width="296" height="248" rx="18" fill="#E2B468"/>
  <rect x="474" y="241" width="298" height="275" rx="18" fill="#F0C777"/>
  <rect x="826" y="288" width="287" height="228" rx="18" fill="#E6AF61"/>
  <rect x="1167" y="253" width="309" height="263" rx="18" fill="#F3D186"/>
  <circle cx="812" cy="636" r="30" fill="#65513A"/><rect x="793" y="664" width="38" height="66" rx="19" fill="#8B7359"/>
  <defs><linearGradient id="bg" x1="0" y1="0" x2="1600" y2="900"><stop stop-color="#F4DFC0"/><stop offset="1" stop-color="#C7B27B"/></linearGradient></defs>
</svg>
