<svg width="1600" height="900" viewBox="0 0 1600 900" fill="none" xmlns="http://www.w3.org/2000/svg">
  <rect width="1600" height="900" rx="32" fill="#CBD5E3"/>
  <rect width="1600" height="900" rx="32" fill="url(#bg)"/>
  <rect x="170" y="138" width="1260" height="624" rx="26" fill="#3E332D"/>
  <rect x="274" y="214" width="1054" height="472" rx="12" fill="#BFD4E6"/>
  <path d="M274 536C396 506 514 496 650 523C771 546 852 560 973 537C1095 514 1210 512 1328 548V686H274V536Z" fill="#DCEAF4"/>
  <g fill="#8FA6BA">
    <rect x="388" y="382" width="70" height="154"/><rect x="478" y="330" width="82" height="206"/>
    <rect x="587" y="295" width="96" height="241"/><rect x="709" y="355" width="77" height="181"/>
    <rect x="814" y="315" width="108" height="221"/><rect x="947" y="278" width="101" height="258"/>
  </g>
  <circle cx="1157" cy="344" r="64" fill="#EEF5FB"/>
  <circle cx="1227" cy="262" r="8" fill="#FFFFFF"/><circle cx="1107" cy="300" r="6" fill="#FFFFFF"/>
  <defs>
    <linearGradient id="bg" x1="0" y1="0" x2="1600" y2="900" gradientUnits="userSpaceOnUse">
      <stop stop-color="#E9EEF4"/><stop offset="1" stop-color="#AABACC"/>
    </linearGradient>
  </defs>
</svg>
