<svg width="1200" height="700" viewBox="0 0 1200 700" fill="none" xmlns="http://www.w3.org/2000/svg">
  <rect width="1200" height="700" rx="32" fill="#120F17"/>
  <rect width="1200" height="700" rx="32" fill="url(#paint0_linear)"/>
  <rect x="135" y="119" width="399" height="451" rx="28" fill="#EAE0D2"/>
  <path d="M195 210H472" stroke="#A7A1A0" stroke-width="8" stroke-linecap="round"/>
  <path d="M195 262H455" stroke="#A7A1A0" stroke-width="8" stroke-linecap="round"/>
  <path d="M195 316H420" stroke="#A7A1A0" stroke-width="8" stroke-linecap="round"/>
  <path d="M181 188L479 433" stroke="#C42020" stroke-width="10" stroke-linecap="round"/>
  <path d="M254 452L466 170" stroke="#C42020" stroke-width="10" stroke-linecap="round"/>
  <rect x="676" y="165" width="327" height="245" rx="24" fill="#131823" stroke="#FFB36B" stroke-opacity="0.4" stroke-width="2"/>
  <circle cx="766" cy="301" r="59" fill="#FF8D72"/>
  <rect x="841" y="241" width="91" height="118" rx="18" fill="#74F5D7"/>
  <rect x="726" y="478" width="275" height="30" rx="15" fill="#E9E1D5"/>
  <rect x="786" y="380" width="38" height="128" rx="19" fill="#D9E7E8"/>
  <circle cx="805" cy="353" r="46" fill="#FFC97A"/>
  <circle cx="977" cy="136" r="88" fill="#7D8DFF" fill-opacity="0.22"/>
  <defs>
    <linearGradient id="paint0_linear" x1="85" y1="42" x2="1088" y2="646" gradientUnits="userSpaceOnUse">
      <stop stop-color="#2B1A18"/>
      <stop offset="0.47" stop-color="#17152A"/>
      <stop offset="1" stop-color="#0A232B"/>
    </linearGradient>
  </defs>
</svg>
