<svg width="1600" height="900" viewBox="0 0 1600 900" fill="none" xmlns="http://www.w3.org/2000/svg">
  <rect width="1600" height="900" rx="40" fill="#120F17"/>
  <rect width="1600" height="900" rx="40" fill="url(#bg)"/>
  <g filter="url(#paperShadow)">
    <rect x="168" y="118" width="506" height="566" rx="28" fill="#EFE4D5"/>
  </g>
  <path d="M241 238H585" stroke="#A8A09B" stroke-width="9" stroke-linecap="round"/>
  <path d="M241 303H560" stroke="#A8A09B" stroke-width="9" stroke-linecap="round"/>
  <path d="M241 368H516" stroke="#A8A09B" stroke-width="9" stroke-linecap="round"/>
  <path d="M241 433H601" stroke="#A8A09B" stroke-width="9" stroke-linecap="round"/>
  <path d="M216 205L617 521" stroke="#C42020" stroke-width="13" stroke-linecap="round"/>
  <path d="M319 559L591 169" stroke="#C42020" stroke-width="13" stroke-linecap="round"/>
  <g filter="url(#studioShadow)">
    <rect x="860" y="188" width="447" height="311" rx="26" fill="#121823"/>
  </g>
  <rect x="860" y="188" width="447" height="311" rx="26" stroke="#FFB36B" stroke-opacity="0.36" stroke-width="2"/>
  <circle cx="977" cy="348" r="84" fill="#FF8D72"/>
  <rect x="1091" y="265" width="121" height="157" rx="22" fill="#74F5D7"/>
  <rect x="935" y="584" width="376" height="35" rx="17.5" fill="#E9E1D5"/>
  <rect x="1017" y="457" width="52" height="162" rx="26" fill="#D9E7E8"/>
  <circle cx="1043" cy="422" r="61" fill="#FFC97A"/>
  <circle cx="1336" cy="136" r="110" fill="#7D8DFF" fill-opacity="0.18"/>
  <g opacity="0.42">
    <path d="M935 153C1010 130 1091 131 1164 158" stroke="#FFD6AA" stroke-width="4" stroke-linecap="round"/>
  </g>
  <defs>
    <linearGradient id="bg" x1="113" y1="44" x2="1452" y2="816" gradientUnits="userSpaceOnUse">
      <stop stop-color="#2B1A18"/>
      <stop offset="0.47" stop-color="#17152A"/>
      <stop offset="1" stop-color="#0A232B"/>
    </linearGradient>
    <filter id="paperShadow" x="148" y="98" width="546" height="606" filterUnits="userSpaceOnUse" color-interpolation-filters="sRGB">
      <feFlood flood-opacity="0" result="BackgroundImageFix"/>
      <feColorMatrix in="SourceAlpha" type="matrix" values="0 0 0 0 0 0 0 0 0 0 0 0 0 0 0 0 0 0 127 0" result="hardAlpha"/>
      <feOffset dy="10"/>
      <feGaussianBlur stdDeviation="10"/>
      <feColorMatrix type="matrix" values="0 0 0 0 0 0 0 0 0 0 0 0 0 0 0 0 0 0 0.22 0"/>
      <feBlend mode="normal" in2="BackgroundImageFix" result="effect1_dropShadow_0_1"/>
      <feBlend mode="normal" in="SourceGraphic" in2="effect1_dropShadow_0_1" result="shape"/>
    </filter>
    <filter id="studioShadow" x="840" y="168" width="487" height="351" filterUnits="userSpaceOnUse" color-interpolation-filters="sRGB">
      <feFlood flood-opacity="0" result="BackgroundImageFix"/>
      <feColorMatrix in="SourceAlpha" type="matrix" values="0 0 0 0 0 0 0 0 0 0 0 0 0 0 0 0 0 0 127 0" result="hardAlpha"/>
      <feOffset dy="10"/>
      <feGaussianBlur stdDeviation="10"/>
      <feColorMatrix type="matrix" values="0 0 0 0 0 0 0 0 0 0 0 0 0 0 0 0 0 0 0.22 0"/>
      <feBlend mode="normal" in2="BackgroundImageFix" result="effect1_dropShadow_0_1"/>
      <feBlend mode="normal" in="SourceGraphic" in2="effect1_dropShadow_0_1" result="shape"/>
    </filter>
  </defs>
</svg>
